<svg width="24" height="24" viewBox="0 0 24 24" fill="none" xmlns="http://www.w3.org/2000/svg">
<path d="M16.4399 21.348L16.9929 20.658C17.4779 20.051 18.5089 20.1 18.9179 20.748C19.4109 21.529 20.6289 21.374 20.9669 20.656C20.9849 20.619 20.9409 20.712 20.9779 20.389C21.0159 20.066 20.9999 19.992 20.9679 19.845L19.0459 10.765C18.5619 8.482 18.3209 7.341 17.4889 6.67C16.6599 6 15.4849 6 13.1399 6H10.8629C8.51589 6 7.34289 6 6.51189 6.67C5.67989 7.34 5.43889 8.482 4.95489 10.764L3.03189 19.844C3.00089 19.992 2.98489 20.066 3.02189 20.389C3.05989 20.712 3.01689 20.619 3.03389 20.656C3.37189 21.374 4.58989 21.53 5.08289 20.749C5.49289 20.1 6.52289 20.051 7.00789 20.658L7.55989 21.348C8.25589 22.218 9.70989 22.218 10.4049 21.348L10.4919 21.239C11.2299 20.317 12.7719 20.317 13.5099 21.239L13.5969 21.348C14.2929 22.218 15.7459 22.218 16.4419 21.348" stroke="#E3352F" stroke-width="2" stroke-linecap="round" stroke-linejoin="round"/>
<path d="M2.48297 9.5C1.89797 8.892 2.00797 8.109 2.00797 6.152C2.00797 4.195 2.00797 3.216 2.59397 2.608C3.17897 2 4.11997 2 6.00497 2H17.995C19.879 2 20.821 2 21.407 2.608C21.993 3.216 21.992 4.195 21.992 6.152C21.992 8.109 22.102 8.892 21.516 9.5M12 10H8.99997M14 14H7.99997" stroke="#E3352F" stroke-width="2" stroke-linecap="round" stroke-linejoin="round"/>
</svg>
