<?xml version="1.0" encoding="UTF-8"?>
<svg version="1.1" xmlns="http://www.w3.org/2000/svg" width="512" height="512">
<path d="M0 0 C5.66800903 3.76940479 10.47306831 7.97057488 15.26424885 12.79215813 C16.03942356 13.56046959 16.81459827 14.32878105 17.61326313 15.12037468 C20.15002478 17.63897126 22.67568779 20.16835321 25.20052814 22.69889641 C26.97133812 24.46514088 28.74251823 26.23101432 30.51405048 27.99653435 C34.68723833 32.15967473 38.85232116 36.3308098 43.01485842 40.50459588 C46.32735554 43.82428425 49.64876258 47.13486574 52.97518635 50.44059563 C57.57887788 55.0159939 62.17264875 59.60110738 66.75862408 64.19426155 C68.50220702 65.93799753 70.24888442 67.67864515 71.9987402 69.4160862 C74.44462985 71.84705373 76.87736445 74.29048773 79.3072176 76.73747063 C80.38652546 77.80227654 80.38652546 77.80227654 81.48763752 78.88859367 C86.4526705 83.92698155 90.28641815 88.91874573 91.49349689 96.01920891 C91.48318439 96.96795891 91.47287189 97.91670891 91.46224689 98.89420891 C91.47771564 100.31733391 91.47771564 100.31733391 91.49349689 101.76920891 C90.0636987 110.17978651 84.93937081 115.49504792 79.09188557 121.26627922 C78.30275272 122.06081505 77.51361988 122.85535088 76.70057392 123.67396355 C74.10358164 126.28340742 71.49242553 128.87813072 68.88021564 131.47233391 C67.06358415 133.28912047 65.24762011 135.10657466 63.43229389 136.92466545 C59.63144873 140.726893 55.82396749 144.52228125 52.01083088 148.31217766 C47.61392479 152.68246911 43.2295902 157.06506733 38.85184783 161.45454907 C34.6247289 165.69247807 30.38909161 169.92176832 26.14955807 174.14728355 C24.35299587 175.93933777 22.55850925 177.73347533 20.76616192 179.5297451 C18.25831684 182.04050827 15.74095548 184.54132639 13.22079182 187.03971672 C12.11782764 188.14943336 12.11782764 188.14943336 10.99258137 189.28156853 C5.02534682 195.16361564 -0.14987783 199.45959751 -8.91275311 199.51920891 C-15.7923072 199.30696735 -20.12742017 197.71820632 -25.03775311 192.89420891 C-29.60641209 187.54553497 -29.56016623 182.48348867 -29.76431561 175.58952141 C-27.88849599 166.04906248 -19.71484394 159.16480241 -13.04556561 152.60905266 C-12.08941091 151.65850811 -11.13392741 150.70728798 -10.17908001 149.75543022 C-7.6902068 147.2778942 -5.19245407 144.80950992 -2.6925993 142.34306145 C-0.13284478 139.8142507 2.41821083 137.27669614 4.97005939 134.73991203 C9.9590797 129.78285888 14.957554 124.83544257 19.96224689 119.89420891 C15.86980775 119.87210156 11.77738434 119.85899142 7.68490314 119.84733391 C5.97010761 119.83790764 5.97010761 119.83790764 4.22066975 119.82829094 C-35.61191852 119.74352572 -71.90264054 130.98286521 -101.03775311 158.89420891 C-101.90787029 159.68956047 -102.77798748 160.48491203 -103.67447186 161.30436516 C-123.45641248 180.01396093 -136.2273322 206.01253013 -141.41275311 232.58170891 C-141.5684074 233.37536858 -141.7240617 234.16902824 -141.88443279 234.9867382 C-144.20644396 248.1496722 -144.1691128 261.61660071 -144.14528751 274.94128036 C-144.14167802 279.2752576 -144.16762524 283.60911897 -144.18814373 287.94303703 C-144.21247802 293.40937787 -144.22806508 298.8753308 -144.21280193 304.34171867 C-144.20110863 308.80848847 -144.21859306 313.27432721 -144.25524616 317.74095154 C-144.26381029 319.42768224 -144.2618603 321.11450325 -144.2487421 322.80120468 C-144.13477815 338.60837185 -144.13477815 338.60837185 -149.45933819 345.29388237 C-154.38885488 350.29183082 -158.00510744 351.17011284 -164.91275311 351.51920891 C-170.73591659 351.33955812 -174.45893536 350.27277651 -179.17056561 346.89030266 C-184.62891054 341.05512638 -185.62604774 336.11919112 -185.53946209 328.4049511 C-185.54756657 327.01542229 -185.54756657 327.01542229 -185.55583477 325.59782219 C-185.56830418 322.54524727 -185.55182711 319.49361989 -185.53384686 316.44108391 C-185.53400204 314.29942081 -185.53549427 312.15775744 -185.53825665 310.01609612 C-185.5396404 305.5238435 -185.5270987 301.03191017 -185.50430584 296.53971672 C-185.47612767 290.83459783 -185.47860268 285.13001741 -185.49139595 279.42486 C-185.49842306 274.99590941 -185.49048119 270.56707879 -185.47813892 266.13814354 C-185.47367767 264.03820827 -185.47324001 261.93825986 -185.47720432 259.83832359 C-185.49408291 243.00987684 -184.23264108 226.66248129 -179.35025311 210.45670891 C-179.095341 209.59456779 -178.84042889 208.73242668 -178.57779217 207.84416008 C-164.49806587 161.60563241 -133.79613849 122.90972341 -91.2606535 99.58292961 C-62.65718011 84.4321905 -33.22660254 78.76688547 -1.16275311 78.26920891 C0.89325134 78.23093654 2.94924134 78.1918798 5.00521564 78.15202141 C9.99077249 78.05705011 14.97640387 77.97266083 19.96224689 77.89420891 C19.12992542 77.07188019 19.12992542 77.07188019 18.28078938 76.23293877 C13.03549497 71.04792546 7.7975877 65.85561032 2.56768131 60.65507984 C-0.12088242 57.98212658 -2.81214525 55.31201718 -5.50992107 52.6483593 C-8.11663297 50.07440614 -10.71580147 47.49304825 -13.31005383 44.90653992 C-14.29771634 43.92439138 -15.28800186 42.94487285 -16.28101635 41.96813583 C-28.29196253 30.14618373 -28.29196253 30.14618373 -29.63931561 22.46452141 C-29.69475073 14.31555804 -28.86940344 8.83022883 -23.03775311 2.89420891 C-17.09269333 -2.18386298 -7.09785222 -3.85166473 0 0 Z " fill="#000000" transform="translate(421.0377531051636,161.10579109191895)"/>
<path d="M0 0 C1.423125 -0.01546875 1.423125 -0.01546875 2.875 -0.03125 C11.2855776 1.39854819 16.60083901 6.52287609 22.37207031 12.37036133 C23.16660614 13.15949417 23.96114197 13.94862701 24.77975464 14.76167297 C27.38919851 17.35866526 29.98392181 19.96982136 32.578125 22.58203125 C34.39491156 24.39866275 36.21236575 26.21462679 38.03045654 28.029953 C41.8326841 31.83079817 45.62807234 35.63827941 49.41796875 39.45141602 C53.7882602 43.8483221 58.17085843 48.23265669 62.56034017 52.61039907 C66.79826917 56.83751799 71.02755942 61.07315528 75.25307465 65.31268883 C77.04512887 67.10925102 78.83926642 68.90373764 80.63553619 70.69608498 C83.14629937 73.20393005 85.64711748 75.72129141 88.14550781 78.24145508 C89.25522446 79.34441925 89.25522446 79.34441925 90.38735962 80.46966553 C96.26940673 86.43690007 100.5653886 91.61212472 100.625 100.375 C100.41275844 107.2545541 98.82399741 111.58966706 94 116.5 C88.65132606 121.06865899 83.58927976 121.02241313 76.6953125 121.2265625 C67.15485357 119.35074288 60.2705935 111.17709084 53.71484375 104.5078125 C52.7642992 103.5516578 51.81307907 102.5961743 50.86122131 101.6413269 C48.38368529 99.1524537 45.91530102 96.65470097 43.44885254 94.15484619 C40.92004179 91.59509167 38.38248723 89.04403606 35.84570312 86.4921875 C30.88864997 81.5031672 25.94123367 76.50469289 21 71.5 C20.99945523 72.40483627 20.99891047 73.30967255 20.99834919 74.2419281 C20.98337599 96.26782563 20.94090726 118.29352086 20.86790943 140.31930542 C20.83326972 150.97086879 20.80790524 161.62230288 20.80444336 172.27392578 C20.80140206 181.55887659 20.78088916 190.84359711 20.73947543 200.12845898 C20.71815891 205.04389328 20.70553794 209.95900028 20.71384621 214.8744812 C20.72139481 219.50394319 20.70553067 224.13274245 20.67193985 228.76208305 C20.66371634 230.45833827 20.66394515 232.1546595 20.67340279 233.85090828 C20.75654869 250.40630799 20.75654869 250.40630799 15 256.5 C10.83026817 260.66973183 6.51291566 262.44908818 0.57421875 262.53515625 C-6.53452664 262.09288226 -11.36974539 260.3435185 -16.3125 255 C-19.56140158 250.18681247 -20.25334624 247.21251902 -20.2784729 241.29937744 C-20.2842653 240.57317097 -20.2900577 239.84696451 -20.29602563 239.09875178 C-20.31303256 236.6650734 -20.3159027 234.23158457 -20.31884766 231.79785156 C-20.32814536 230.05343663 -20.3383138 228.30902616 -20.34928894 226.56462097 C-20.3766208 221.82741507 -20.3917478 217.09023896 -20.40471697 212.35297489 C-20.42033356 207.40282328 -20.44712847 202.45273264 -20.4727478 197.50262451 C-20.51956167 188.12817408 -20.55629316 178.75371221 -20.58942068 169.37920451 C-20.62762363 158.7069676 -20.67703858 148.03479188 -20.72740483 137.36260653 C-20.83076347 115.40844951 -20.9200111 93.45425378 -21 71.5 C-21.54821915 72.05488098 -22.09643829 72.60976196 -22.66127014 73.18145752 C-27.84628344 78.42675192 -33.03859858 83.66465919 -38.23912907 88.89456558 C-40.91208233 91.58312932 -43.58219173 94.27439215 -46.24584961 96.97216797 C-48.81980277 99.57887986 -51.40116066 102.17804836 -53.98766899 104.77230072 C-54.96981752 105.75996324 -55.94933606 106.75024875 -56.92607307 107.74326324 C-68.74802518 119.75420943 -68.74802518 119.75420943 -76.4296875 121.1015625 C-84.57865086 121.15699762 -90.06398008 120.33165034 -96 114.5 C-100.56865899 109.15132606 -100.52241313 104.08927976 -100.7265625 97.1953125 C-99.03631573 88.5986811 -92.12644849 82.18440866 -86.10205078 76.19799805 C-85.33373932 75.42282333 -84.56542786 74.64764862 -83.77383423 73.84898376 C-81.25523765 71.31222212 -78.7258557 68.78655911 -76.1953125 66.26171875 C-74.42906803 64.49090878 -72.66319459 62.71972866 -70.89767456 60.94819641 C-66.73453418 56.77500857 -62.56339911 52.60992574 -58.38961303 48.44738847 C-55.06992466 45.13489135 -51.75934316 41.81348431 -48.45361328 38.48706055 C-43.87821501 33.88336902 -39.29310153 29.28959815 -34.69994736 24.70362282 C-32.95621138 22.96003988 -31.21556376 21.21336247 -29.47812271 19.4635067 C-27.04715517 17.01761705 -24.60372117 14.58488245 -22.15673828 12.1550293 C-21.44686768 11.43549072 -20.73699707 10.71595215 -20.00561523 9.97460938 C-14.23685129 4.28983401 -8.40182678 -0.0913242 0 0 Z " fill="#000000" transform="translate(256,-0.5)"/>
<path d="M0 0 C5.17282154 2.06766737 9.94379649 5.61201591 12.40234375 10.7578125 C13.93358086 16.5024537 14.80794547 23.55278542 11.96783447 28.96803284 C7.69063133 35.49780293 2.56106513 40.82643453 -2.9921875 46.28515625 C-3.9483422 47.2357008 -4.9038257 48.18692093 -5.8586731 49.13877869 C-8.3475463 51.61631471 -10.84529903 54.08469898 -13.34515381 56.55114746 C-15.90490833 59.07995821 -18.45596394 61.61751277 -21.0078125 64.15429688 C-25.9968328 69.11135003 -30.99530711 74.05876633 -36 79 C-34.79279297 79.0093457 -33.58558594 79.01869141 -32.34179688 79.02832031 C22.83355862 79.52885617 72.92541274 89.27766253 114 129 C117.92846882 133.62405283 119.89173146 137.82869348 120 144 C119.32256164 149.85060401 117.84145463 154.41159586 114 159 C109.00283619 162.77336859 105.39983331 164.15622893 99.1875 164.25 C97.66189453 164.28867187 97.66189453 164.28867187 96.10546875 164.328125 C89.46448723 163.62643639 85.33716496 159.74662388 80.625 155.4375 C73.29652647 148.97177785 65.49750355 143.80052437 57 139 C56.02957764 138.45085937 56.02957764 138.45085937 55.03955078 137.890625 C30.42824263 124.22661484 4.2484909 120.91849377 -23.50390625 120.98046875 C-25.30945984 120.98258362 -25.30945984 120.98258362 -27.15148926 120.98474121 C-30.10099796 120.98839974 -33.05049636 120.99352441 -36 121 C-35.44511902 121.54821915 -34.89023804 122.09643829 -34.31854248 122.66127014 C-29.07324808 127.84628344 -23.83534081 133.03859858 -18.60543442 138.23912907 C-15.91687068 140.91208233 -13.22560785 143.58219173 -10.52783203 146.24584961 C-7.92112014 148.81980277 -5.32195164 151.40116066 -2.72769928 153.98766899 C-1.74003676 154.96981752 -0.74975125 155.94933606 0.24326324 156.92607307 C12.25420943 168.74802518 12.25420943 168.74802518 13.6015625 176.4296875 C13.65699762 184.57865086 12.83165034 190.06398008 7 196 C1.65132606 200.56865899 -3.41072024 200.52241313 -10.3046875 200.7265625 C-18.90847768 199.03490819 -25.31810253 192.12130392 -31.30200195 186.08618164 C-32.07717667 185.31626389 -32.85235138 184.54634613 -33.65101624 183.75309753 C-36.18765574 181.22956264 -38.71327935 178.69533143 -41.23828125 176.16015625 C-43.00901761 174.39144294 -44.78019891 172.62317499 -46.55180359 170.85533142 C-50.72482337 166.68728473 -54.89008167 162.51159101 -59.05261153 158.33307117 C-62.36619991 155.00820507 -65.68736786 151.69105182 -69.01293945 148.37817383 C-73.61442062 143.79410197 -78.20848256 139.20273939 -82.79637718 134.60507011 C-84.54084451 132.85860594 -86.28753097 131.11435538 -88.0364933 129.37239265 C-90.47999617 126.93652951 -92.91364139 124.49121911 -95.3449707 122.04321289 C-96.42427856 120.97301407 -96.42427856 120.97301407 -97.52539062 119.88119507 C-103.35852965 113.97392224 -107.56597786 108.80125427 -107.625 100.125 C-107.65851563 98.99320312 -107.69203125 97.86140625 -107.7265625 96.6953125 C-106.03490819 88.09152232 -99.12130392 81.68189747 -93.08618164 75.69799805 C-92.31626389 74.92282333 -91.54634613 74.14764862 -90.75309753 73.34898376 C-88.22956264 70.81234426 -85.69533143 68.28672065 -83.16015625 65.76171875 C-81.39144294 63.99098239 -79.62317499 62.21980109 -77.85533142 60.44819641 C-73.68728473 56.27517663 -69.51159101 52.10991833 -65.33307117 47.94738847 C-62.00820507 44.63380009 -58.69105182 41.31263214 -55.37817383 37.98706055 C-50.79410197 33.38557938 -46.20273939 28.79151744 -41.60507011 24.20362282 C-39.85860594 22.45915549 -38.11435538 20.71246903 -36.37239265 18.9635067 C-33.93652951 16.52000383 -31.49121911 14.08635861 -29.04321289 11.6550293 C-27.97301407 10.57572144 -27.97301407 10.57572144 -26.88119507 9.47460938 C-18.68124709 1.37756732 -11.78346196 -1.74619176 0 0 Z " fill="#000000" transform="translate(107,160)"/>
</svg>
