<svg width="141" height="213" viewBox="0 0 141 213" fill="none" xmlns="http://www.w3.org/2000/svg">
<path d="M139.984 151.024L34.2259 212.229C33.3647 212.729 32.3877 212.995 31.392 213C30.3962 213.005 29.4165 212.75 28.5502 212.259L1.07745 196.71C0.792075 196.546 0.554986 196.31 0.390115 196.025C0.225245 195.741 0.138428 195.417 0.138428 195.088C0.138428 194.759 0.225245 194.436 0.390115 194.151C0.554986 193.866 0.792075 193.63 1.07745 193.466L106.637 132.5C107.496 132.006 108.468 131.744 109.459 131.738C110.449 131.732 111.425 131.982 112.289 132.465L139.961 147.972C140.232 148.123 140.458 148.343 140.616 148.61C140.775 148.877 140.859 149.181 140.862 149.491C140.864 149.801 140.784 150.107 140.63 150.376C140.476 150.645 140.253 150.869 139.984 151.024Z" fill="#CCCCCC"/>
<path d="M103.796 45.9022L101.137 44.8209L100.868 44.7098H100.838C100.362 44.5376 99.8529 44.472 99.348 44.5174C98.8431 44.5628 98.3542 44.7183 97.9158 44.9728L6.64786 97.6504C4.72984 98.7557 3.13698 100.347 2.02973 102.264C0.922478 104.181 0.339948 106.356 0.340821 108.569V188.03C0.341283 188.874 0.564053 189.704 0.986736 190.435C1.40942 191.166 2.01712 191.773 2.74875 192.195C3.48038 192.617 4.31015 192.838 5.15466 192.838C5.99917 192.837 6.82866 192.614 7.55973 192.192L98.9154 139.45C100.219 138.697 101.301 137.613 102.053 136.309C102.805 135.005 103.201 133.526 103.2 132.021V48.0358C103.202 47.4343 103.049 46.8425 102.756 46.3173L103.796 45.9022Z" fill="#CCCCCC"/>
<path opacity="0.3" d="M103.796 45.9022L101.137 44.8209L100.868 44.7098H100.838C100.362 44.5376 99.8529 44.472 99.348 44.5174C98.8431 44.5628 98.3542 44.7183 97.9158 44.9728L6.64786 97.6504C4.72984 98.7557 3.13698 100.347 2.02973 102.264C0.922478 104.181 0.339948 106.356 0.340821 108.569V188.03C0.341283 188.874 0.564053 189.704 0.986736 190.435C1.40942 191.166 2.01712 191.773 2.74875 192.195C3.48038 192.617 4.31015 192.838 5.15466 192.838C5.99917 192.837 6.82866 192.614 7.55973 192.192L98.9154 139.45C100.219 138.697 101.301 137.613 102.053 136.309C102.805 135.005 103.201 133.526 103.2 132.021V48.0358C103.202 47.4343 103.049 46.8425 102.756 46.3173L103.796 45.9022Z" fill="#999999"/>
<path d="M105.62 48.9946V133.009C105.621 134.514 105.225 135.993 104.471 137.296C103.718 138.6 102.634 139.681 101.329 140.432L9.97378 193.18C9.242 193.601 8.41236 193.822 7.56805 193.822C6.72373 193.821 5.8944 193.599 5.1632 193.176C4.43199 192.754 3.8246 192.147 3.40191 191.417C2.97922 190.686 2.75609 189.856 2.75488 189.012V109.517C2.75539 107.338 3.32135 105.197 4.3974 103.303C5.21243 101.898 6.38921 100.738 7.80519 99.942L102.165 45.4583C103.08 45.4868 103.949 45.8674 104.591 46.5208C105.232 47.1742 105.597 48.0499 105.608 48.9654L105.62 48.9946Z" fill="#CCCCCC"/>
<path opacity="0.1" d="M105.62 48.9946V133.009C105.621 134.514 105.225 135.993 104.471 137.296C103.718 138.6 102.634 139.681 101.329 140.432L9.97378 193.18C9.242 193.601 8.41236 193.822 7.56805 193.822C6.72373 193.821 5.8944 193.599 5.1632 193.176C4.43199 192.754 3.8246 192.147 3.40191 191.417C2.97922 190.686 2.75609 189.856 2.75488 189.012V109.517C2.75539 107.338 3.32135 105.197 4.3974 103.303C5.21243 101.898 6.38921 100.738 7.80519 99.942L102.165 45.4583C103.08 45.4868 103.949 45.8674 104.591 46.5208C105.232 47.1742 105.597 48.0499 105.608 48.9654L105.62 48.9946Z" fill="#999999"/>
<path d="M101.329 140.432L9.97382 193.18C9.26669 193.594 8.46482 193.818 7.64568 193.831C6.82654 193.845 6.01781 193.646 5.29761 193.256L59.8456 111.159L105.62 133.003C105.62 134.509 105.224 135.989 104.471 137.293C103.717 138.597 102.634 139.68 101.329 140.432Z" fill="#CCCCCC"/>
<path opacity="0.2" d="M101.329 140.432L9.97382 193.18C9.26669 193.594 8.46482 193.818 7.64568 193.831C6.82654 193.845 6.01781 193.646 5.29761 193.256L59.8456 111.159L105.62 133.003C105.62 134.509 105.224 135.989 104.471 137.293C103.717 138.597 102.634 139.68 101.329 140.432Z" fill="#999999"/>
<path d="M104.083 46.0837L66.8307 124.007C66.097 125.538 65.0551 126.901 63.7703 128.011C62.4855 129.12 60.9854 129.953 59.364 130.456C57.7425 130.959 56.0347 131.122 54.3473 130.935C52.66 130.747 51.0295 130.214 49.558 129.367L4.39746 103.321C5.16832 101.952 6.29278 100.815 7.65327 100.03L102.165 45.4583C102.852 45.4745 103.519 45.692 104.083 46.0837Z" fill="#CCCCCC"/>
<path d="M13.7732 78.3027L40.5328 62.8478V43.6929L21.0856 54.4131C18.8706 55.6323 17.0236 57.4237 15.7373 59.6004C14.4511 61.7771 13.7727 64.2592 13.7732 66.7875V78.3027Z" fill="#CCCCCC"/>
<path opacity="0.5" d="M13.7732 78.3027L40.5328 62.8478V43.6929L21.0856 54.4131C18.8706 55.6323 17.0236 57.4237 15.7373 59.6004C14.4511 61.7771 13.7727 64.2592 13.7732 66.7875V78.3027Z" fill="white"/>
<path d="M124.377 4.12038L121.928 2.73505C118.818 0.936452 115.287 -0.00714549 111.693 4.07415e-05C108.1 0.00722697 104.573 0.964941 101.47 2.77597L24.9376 47.3637C21.5405 49.3421 18.7217 52.1769 16.7626 55.5853C14.8036 58.9936 13.7728 62.8562 13.7732 66.7875C13.7729 64.7679 14.306 62.7841 15.3184 61.0366C16.3309 59.2892 17.7868 57.8401 19.539 56.8359C21.2912 55.8316 23.2775 55.3079 25.297 55.3177C27.3166 55.3274 29.2977 55.8703 31.0401 56.8914L34.2433 58.7678C37.5784 60.7198 40.3447 63.5105 42.2673 66.8626C44.19 70.2148 45.2021 74.0116 45.2032 77.876V191.59L39.9834 204.841L49.7859 198.873L128.586 153.151C131.385 151.529 133.708 149.198 135.321 146.394C136.935 143.59 137.783 140.411 137.78 137.176V27.3787C137.78 22.6675 136.541 18.0392 134.189 13.9573C131.837 9.87535 128.453 6.48314 124.377 4.12038Z" fill="#CCCCCC"/>
<path opacity="0.7" d="M124.377 4.12038L121.928 2.73505C118.818 0.936452 115.287 -0.00714549 111.693 4.07415e-05C108.1 0.00722697 104.573 0.964941 101.47 2.77597L24.9376 47.3637C21.5405 49.3421 18.7217 52.1769 16.7626 55.5853C14.8036 58.9936 13.7728 62.8562 13.7732 66.7875C13.7729 64.7679 14.306 62.7841 15.3184 61.0366C16.3309 59.2892 17.7868 57.8401 19.539 56.8359C21.2912 55.8316 23.2775 55.3079 25.297 55.3177C27.3166 55.3274 29.2977 55.8703 31.0401 56.8914L34.2433 58.7678C37.5784 60.7198 40.3447 63.5105 42.2673 66.8626C44.19 70.2148 45.2021 74.0116 45.2032 77.876V191.59L39.9834 204.841L49.7859 198.873L128.586 153.151C131.385 151.529 133.708 149.198 135.321 146.394C136.935 143.59 137.783 140.411 137.78 137.176V27.3787C137.78 22.6675 136.541 18.0392 134.189 13.9573C131.837 9.87535 128.453 6.48314 124.377 4.12038Z" fill="white"/>
<path d="M16.9473 194.507C16.9473 194.507 22.436 202.532 31.2565 205.192C40.7433 208.05 45.2033 201.761 45.2033 193.42V178.333L16.9473 194.507Z" fill="#CCCCCC"/>
<path opacity="0.5" d="M16.9473 194.507C16.9473 194.507 22.436 202.532 31.2565 205.192C40.7433 208.05 45.2033 201.761 45.2033 193.42V178.333L16.9473 194.507Z" fill="white"/>
<path d="M62.2541 113.795C62.0645 113.792 61.881 113.728 61.7315 113.611C61.5821 113.494 61.4747 113.332 61.4257 113.149C61.3768 112.966 61.389 112.772 61.4604 112.596C61.5319 112.421 61.6586 112.273 61.8215 112.176L120.274 78.4137C120.473 78.299 120.71 78.2681 120.932 78.3279C121.154 78.3876 121.343 78.5331 121.458 78.7323C121.573 78.9315 121.603 79.1681 121.544 79.3901C121.484 79.6121 121.339 79.8013 121.139 79.916L62.6866 113.678C62.5548 113.754 62.4059 113.794 62.2541 113.795Z" fill="white"/>
<path d="M62.254 126.742C62.0639 126.742 61.8792 126.679 61.7284 126.563C61.5777 126.447 61.4694 126.285 61.4201 126.101C61.3709 125.917 61.3835 125.723 61.4561 125.547C61.5286 125.371 61.657 125.224 61.8214 125.129L120.274 91.3608C120.473 91.246 120.71 91.2152 120.932 91.2749C121.154 91.3346 121.343 91.4801 121.458 91.6793C121.572 91.8785 121.603 92.1152 121.544 92.3371C121.484 92.5591 121.338 92.7483 121.139 92.863L62.6865 126.654C62.552 126.72 62.4033 126.75 62.254 126.742Z" fill="white"/>
<path d="M62.254 139.684C62.0639 139.683 61.8792 139.62 61.7284 139.504C61.5777 139.389 61.4694 139.226 61.4201 139.043C61.3709 138.859 61.3835 138.664 61.4561 138.489C61.5286 138.313 61.657 138.166 61.8214 138.07L120.274 104.308C120.472 104.205 120.701 104.183 120.915 104.245C121.129 104.308 121.311 104.45 121.422 104.643C121.534 104.836 121.566 105.064 121.514 105.28C121.461 105.497 121.327 105.685 121.139 105.805L62.6865 139.567C62.5547 139.642 62.4058 139.682 62.254 139.684Z" fill="white"/>
<path d="M62.254 152.625C62.0639 152.625 61.8792 152.562 61.7284 152.446C61.5777 152.33 61.4694 152.168 61.4201 151.984C61.3709 151.8 61.3835 151.606 61.4561 151.43C61.5286 151.254 61.657 151.107 61.8214 151.012L120.274 117.25C120.472 117.147 120.701 117.124 120.915 117.187C121.129 117.249 121.311 117.391 121.422 117.584C121.534 117.777 121.566 118.005 121.514 118.222C121.461 118.438 121.327 118.626 121.139 118.746L62.6865 152.508C62.5558 152.586 62.4062 152.627 62.254 152.625Z" fill="white"/>
<path d="M62.254 165.567C62.0639 165.566 61.8792 165.503 61.7284 165.387C61.5777 165.271 61.4694 165.109 61.4201 164.925C61.3709 164.742 61.3835 164.547 61.4561 164.371C61.5286 164.196 61.657 164.049 61.8214 163.953L120.274 130.191C120.472 130.088 120.701 130.066 120.915 130.128C121.129 130.19 121.311 130.333 121.422 130.526C121.534 130.718 121.566 130.947 121.514 131.163C121.461 131.38 121.327 131.567 121.139 131.687L62.6865 165.45C62.5558 165.528 62.4062 165.568 62.254 165.567Z" fill="white"/>
<path d="M100.64 156.343C100.488 156.344 100.339 156.304 100.207 156.228C100.075 156.152 99.9667 156.043 99.8917 155.91C99.7809 155.713 99.7519 155.48 99.8109 155.261C99.8699 155.043 100.012 154.856 100.207 154.741L120.286 143.133C120.483 143.03 120.713 143.007 120.927 143.07C121.141 143.132 121.322 143.274 121.434 143.467C121.545 143.66 121.578 143.888 121.525 144.105C121.473 144.321 121.339 144.509 121.151 144.629L101.072 156.232C100.94 156.305 100.791 156.344 100.64 156.343Z" fill="white"/>
<path d="M102.96 65.069L86.1143 74.7955V66.4953C86.1143 60.726 89.6214 54.0215 93.9528 51.5197L95.1218 50.8475C99.4473 48.3457 102.96 50.9995 102.96 56.7687V65.069Z" fill="#CCCCCC"/>
<path d="M106.883 67.822L82.1921 82.0786L86.1143 72.9951L102.96 63.2686L106.883 67.822Z" fill="#CCCCCC"/>
<path d="M94.5664 53.9219C93.8357 54.3428 93.2454 54.0037 93.2454 53.162V49.9296C93.2708 49.4717 93.4036 49.0262 93.6331 48.6292C93.8626 48.2321 94.1823 47.8947 94.5664 47.6441C95.2912 47.2232 95.8816 47.5622 95.8816 48.404V51.6422C95.8559 52.0986 95.7235 52.5426 95.4951 52.9385C95.2667 53.3344 94.9486 53.6712 94.5664 53.9219Z" fill="#CCCCCC"/>
<path d="M91.7317 77.7881C91.8018 79.4657 93.0293 80.1263 94.5374 79.2553C95.3276 78.7386 95.9902 78.0493 96.4752 77.2392C96.9602 76.4292 97.255 75.5196 97.3373 74.5791L91.7317 77.7881Z" fill="#CCCCCC"/>
</svg>
