<svg width="24" height="24" viewBox="0 0 24 24" fill="none" xmlns="http://www.w3.org/2000/svg">
<path d="M7 8.5L9.942 10.24C11.657 11.254 12.342 11.254 14.058 10.24L17 8.5" stroke="#B3B3B3" stroke-width="1.5" stroke-linecap="round" stroke-linejoin="round"/>
<path d="M2.01581 13.4761C2.08081 16.5411 2.11381 18.0741 3.24481 19.2091C4.37581 20.3451 5.94981 20.3841 9.09881 20.4631C11.0388 20.5131 12.9608 20.5131 14.9008 20.4631C18.0498 20.3841 19.6238 20.3451 20.7548 19.2091C21.8858 18.0741 21.9188 16.5411 21.9848 13.4761C22.0048 12.4901 22.0048 11.5101 21.9848 10.5241C21.9188 7.45908 21.8858 5.92608 20.7548 4.79108C19.6238 3.65508 18.0498 3.61608 14.9008 3.53708C12.9671 3.48829 11.0325 3.48829 9.09881 3.53708C5.94981 3.61608 4.37581 3.65508 3.24481 4.79108C2.11381 5.92608 2.08081 7.45908 2.01481 10.5241C1.99376 11.508 1.99476 12.4922 2.01581 13.4761Z" stroke="#B3B3B3" stroke-width="1.5" stroke-linecap="round" stroke-linejoin="round"/>
</svg>
