<svg width="20" height="22" viewBox="0 0 20 22" fill="none" xmlns="http://www.w3.org/2000/svg">
<path d="M15.5 12.4999V13.9999C15.5 17.2999 15.5 18.9499 14.475 19.9739C13.45 20.9979 11.8 20.9999 8.5 20.9999C5.2 20.9999 3.55 20.9999 2.525 19.9749C1.5 18.9499 1.5 17.2999 1.5 13.9999V7.99988C1.5 4.69988 1.5 3.04988 2.525 2.02488C3.382 1.16888 4.674 1.02788 7 1.00488" stroke="#B3B3B3" stroke-width="1.5" stroke-linecap="round" stroke-linejoin="round"/>
<path d="M14 1C12.574 1 11.65 1.909 10.558 2.24C10.114 2.374 9.892 2.442 9.802 2.537C9.712 2.632 9.686 2.77 9.633 3.047C9.07 6.016 10.301 8.76 13.238 9.827C13.553 9.943 13.711 10 14.001 10C14.291 10 14.448 9.943 14.764 9.828C17.7 8.76 18.93 6.016 18.367 3.048C18.314 2.77 18.287 2.631 18.198 2.537C18.109 2.443 17.886 2.374 17.442 2.24C16.349 1.909 15.424 1 13.999 1M7.5 18H9.5" stroke="#B3B3B3" stroke-width="1.5" stroke-linecap="round" stroke-linejoin="round"/>
</svg>
