<?xml version="1.0" standalone="no"?>
<!DOCTYPE svg PUBLIC "-//W3C//DTD SVG 20010904//EN"
 "http://www.w3.org/TR/2001/REC-SVG-20010904/DTD/svg10.dtd">
<svg version="1.0" xmlns="http://www.w3.org/2000/svg"
 width="512.000000pt" height="512.000000pt" viewBox="0 0 512.000000 512.000000"
 preserveAspectRatio="xMidYMid meet">

<g transform="translate(0.000000,512.000000) scale(0.100000,-0.100000)"
fill="#000000" stroke="none">
<path d="M2159 5027 c-91 -34 -155 -95 -197 -185 -20 -44 -26 -76 -30 -163
l-5 -109 -217 0 c-209 0 -218 -1 -251 -23 -41 -27 -79 -82 -79 -113 l0 -23
-288 -3 -289 -3 -48 -30 c-57 -35 -110 -100 -125 -153 -14 -52 -14 -3492 0
-3544 15 -53 68 -118 125 -153 l48 -30 709 -3 708 -3 0 -152 c0 -172 6 -191
77 -234 l38 -23 835 0 835 0 247 248 248 247 0 1216 0 1216 -22 33 c-51 75
-50 75 -339 78 l-259 3 0 532 c0 336 -4 546 -10 569 -15 53 -68 118 -125 153
l-48 30 -288 3 -287 3 -6 34 c-4 19 -18 48 -33 65 -48 57 -62 60 -296 60
l-214 0 -5 114 c-6 131 -29 197 -92 259 -80 81 -224 119 -317 84z m209 -120
c23 -14 54 -48 69 -74 26 -45 28 -56 31 -188 2 -77 9 -146 14 -152 8 -10 70
-13 249 -13 237 0 238 0 266 -24 l28 -24 3 -184 c4 -221 -1 -262 -35 -294
l-26 -24 -714 0 c-787 0 -750 -3 -772 62 -15 42 -15 409 0 441 19 43 46 47
293 47 175 0 236 3 244 13 5 6 12 73 14 147 4 148 16 187 75 241 51 48 83 60
154 56 52 -2 75 -8 107 -30z m-990 -699 l-3 -103 -190 -5 c-211 -6 -229 -11
-259 -75 -14 -30 -16 -188 -16 -1575 0 -1693 -4 -1585 58 -1627 25 -17 70 -18
637 -23 l610 -5 3 -102 3 -103 -694 0 -694 0 -34 23 c-18 12 -44 38 -56 56
l-23 34 0 1747 0 1747 23 34 c12 18 38 44 56 56 33 23 40 23 308 23 l274 0 -3
-102z m2323 79 c18 -12 44 -38 56 -56 l23 -34 0 -538 0 -539 -95 0 -95 0 0
438 c0 404 -1 440 -18 471 -34 63 -63 71 -269 71 l-183 0 0 105 0 105 274 0
c267 0 274 0 307 -23z m-2314 -322 c17 -50 57 -92 108 -116 38 -18 80 -19 755
-19 674 0 717 1 755 19 50 23 78 53 105 114 l21 47 163 0 c124 0 167 -3 182
-14 18 -14 19 -32 22 -445 l3 -431 -576 0 c-629 0 -613 1 -669 -59 l-30 -31
-491 0 c-369 0 -494 -3 -503 -12 -16 -16 -15 -53 1 -67 10 -7 161 -12 498 -13
l484 -3 3 -172 2 -173 -480 0 c-313 0 -488 -4 -501 -10 -22 -12 -26 -59 -7
-78 9 -9 134 -12 500 -12 l488 0 0 -175 0 -175 -488 0 c-366 0 -491 -3 -500
-12 -19 -19 -15 -66 7 -78 13 -6 188 -10 500 -10 l481 0 -2 -572 -3 -573 -592
0 c-472 0 -595 3 -605 13 -11 11 -13 301 -13 1543 0 1512 0 1531 20 1545 15
12 53 14 184 12 l164 -3 14 -40z m2990 -953 c32 -20 33 -68 33 -1212 l0 -1149
-189 -3 c-216 -3 -227 -7 -268 -88 -21 -41 -23 -58 -23 -212 l0 -168 -794 0
-795 0 -15 22 c-14 20 -16 169 -16 1400 0 1365 0 1378 20 1398 20 20 33 20
1028 20 554 0 1012 -4 1019 -8z m-192 -2612 l-150 -150 -3 131 c-4 176 -10
169 167 169 l136 0 -150 -150z"/>
<path d="M2216 4794 c-23 -22 -21 -96 2 -117 40 -37 82 -5 82 61 0 44 -19 72
-50 72 -10 0 -26 -7 -34 -16z"/>
<path d="M1232 3468 c-19 -19 -15 -66 7 -78 13 -7 347 -10 1011 -10 664 0 998
3 1011 10 22 12 26 59 7 78 -17 17 -2019 17 -2036 0z"/>
<path d="M3216 2284 c-240 -53 -427 -224 -503 -459 -33 -102 -37 -264 -9 -365
66 -242 263 -432 502 -485 56 -13 105 -16 183 -13 177 8 309 66 436 193 130
131 186 259 192 445 4 92 0 130 -16 190 l-19 75 68 70 c80 83 100 118 100 180
0 91 -66 166 -158 181 -61 10 -117 -15 -181 -80 l-53 -54 -58 37 c-129 84
-332 119 -484 85z m269 -99 c72 -19 170 -62 187 -82 9 -12 -14 -40 -132 -158
l-143 -144 -54 49 c-97 86 -197 90 -275 12 -49 -49 -66 -111 -48 -176 11 -39
31 -65 132 -164 65 -64 136 -126 156 -136 47 -25 125 -26 172 -2 19 10 121
104 227 209 106 105 194 189 197 186 17 -16 27 -157 17 -225 -61 -412 -505
-627 -860 -417 -75 45 -175 147 -214 220 -35 66 -67 190 -67 263 0 263 186
504 436 564 79 19 197 19 269 1z m540 -10 c18 -17 25 -35 25 -62 0 -37 -12
-50 -302 -340 -167 -165 -313 -304 -326 -308 -45 -13 -78 6 -195 118 -109 105
-117 115 -117 150 0 51 35 87 86 87 31 0 46 -9 105 -66 49 -48 76 -66 95 -66
21 0 77 50 283 256 230 230 260 256 289 256 22 0 41 -9 57 -25z"/>
</g>
</svg>
