<svg width="40" height="40" viewBox="0 0 40 40" fill="none" xmlns="http://www.w3.org/2000/svg">
<path opacity="0.8" d="M21.5013 4.1995L21.4513 4.31616L16.618 15.5328H11.868C10.7346 15.5328 9.66797 15.7495 8.66797 16.1828L11.5846 9.21616L11.6513 9.06616L11.7513 8.7995C11.8013 8.68283 11.8346 8.58283 11.8846 8.4995C14.068 3.4495 16.5346 2.2995 21.5013 4.1995Z" fill="#E7504B"/>
<path d="M30.4819 15.8669C29.7319 15.6502 28.9486 15.5335 28.1319 15.5335H16.6152L21.4486 4.31686L21.4986 4.2002C21.7319 4.28353 21.9819 4.4002 22.2319 4.48353L25.9152 6.03353C27.9652 6.88353 29.3986 7.76686 30.2819 8.83353C30.4319 9.03353 30.5652 9.21686 30.6986 9.43353C30.8486 9.66686 30.9652 9.9002 31.0319 10.1502C31.0986 10.3002 31.1486 10.4335 31.1819 10.5835C31.6152 12.0002 31.3486 13.7169 30.4819 15.8669Z" fill="#E7504B"/>
<path opacity="0.4" d="M36.2677 23.6675V26.9175C36.2677 27.2508 36.251 27.5842 36.2344 27.9008C35.9177 33.7342 32.6677 36.6675 26.501 36.6675H13.501C13.0844 36.6675 12.701 36.6342 12.3177 36.5842C7.01771 36.2342 4.18437 33.4008 3.81771 28.1008C3.76771 27.7008 3.73438 27.3175 3.73438 26.9175V23.6675C3.73438 20.3175 5.76771 17.4342 8.66771 16.1842C9.66771 15.7508 10.7344 15.5342 11.8677 15.5342H28.1344C28.951 15.5342 29.7344 15.6508 30.4844 15.8675C33.8177 16.8842 36.2677 19.9842 36.2677 23.6675Z" fill="#E7504B"/>
<path opacity="0.6" d="M11.5844 9.2168L8.66771 16.1835C5.76771 17.4335 3.73438 20.3168 3.73438 23.6668V18.7835C3.73438 14.0501 7.10104 10.1001 11.5844 9.2168Z" fill="#E7504B"/>
<path opacity="0.6" d="M36.2658 18.7837V23.6671C36.2658 19.9837 33.8158 16.8837 30.4824 15.8671C31.3491 13.7171 31.6158 12.0004 31.1824 10.5837C31.1491 10.4337 31.0991 10.3004 31.0324 10.1504C34.1491 11.7671 36.2658 15.0504 36.2658 18.7837Z" fill="#E7504B"/>
</svg>
